<?xml version="1.0" encoding="UTF-8" standalone="no"?>
<!-- Created with Inkscape (http://www.inkscape.org/) -->

<svg
   xmlns:dc="http://purl.org/dc/elements/1.1/"
   xmlns:cc="http://creativecommons.org/ns#"
   xmlns:rdf="http://www.w3.org/1999/02/22-rdf-syntax-ns#"
   xmlns:svg="http://www.w3.org/2000/svg"
   xmlns="http://www.w3.org/2000/svg"
   xmlns:sodipodi="http://sodipodi.sourceforge.net/DTD/sodipodi-0.dtd"
   xmlns:inkscape="http://www.inkscape.org/namespaces/inkscape"
   width="210mm"
   height="297mm"
   viewBox="0 0 210 297"
   version="1.1"
   id="svg8"
   inkscape:version="0.92.3 (2405546, 2018-03-11)"
   sodipodi:docname="desenhando.svg">
  <defs
     id="defs2" />
  <sodipodi:namedview
     id="base"
     pagecolor="#ffffff"
     bordercolor="#666666"
     borderopacity="1.0"
     inkscape:pageopacity="0.0"
     inkscape:pageshadow="2"
     inkscape:zoom="0.49497475"
     inkscape:cx="400"
     inkscape:cy="560"
     inkscape:document-units="mm"
     inkscape:current-layer="layer1"
     showgrid="false"
     inkscape:window-width="1920"
     inkscape:window-height="1052"
     inkscape:window-x="0"
     inkscape:window-y="0"
     inkscape:window-maximized="1" />
  <metadata
     id="metadata5">
    <rdf:RDF>
      <cc:Work
         rdf:about="">
        <dc:format>image/svg+xml</dc:format>
        <dc:type
           rdf:resource="http://purl.org/dc/dcmitype/StillImage" />
        <dc:title></dc:title>
      </cc:Work>
    </rdf:RDF>
  </metadata>
  <g
     inkscape:label="Camada 1"
     inkscape:groupmode="layer"
     id="layer1">
    <path
       style="fill:#000000;stroke-width:0.16693948"
       d="M 22.220013,121.09102 V 40.960073 h 80.130947 80.13095 v 80.130947 80.13095 H 102.35096 22.220013 Z m 76.79216,50.08185 c 0,-0.0918 -0.14048,-0.16694 -0.31217,-0.16694 -0.61513,0 -3.72065,-1.01723 -5.07183,-1.66131 -3.43746,-1.63855 -7.15657,-4.86834 -9.25195,-8.03467 l -0.43297,-0.65427 -4.10957,0.006 -4.10957,0.006 0.66776,0.58806 c 4.27198,3.76211 10.0939,7.01564 15.30798,8.55472 1.49603,0.4416 5.2252,1.22626 6.72803,1.41566 0.27545,0.0347 0.5196,0.0744 0.54255,0.0881 0.023,0.0137 0.0417,-0.0501 0.0417,-0.14193 z m 9.824227,-0.34955 c 0.51885,-0.10968 1.09361,-0.2221 1.27724,-0.24982 1.08757,-0.16418 3.74706,-0.95432 5.67595,-1.68632 4.12181,-1.5642 8.59733,-4.25 12.25626,-7.35507 l 1.03276,-0.87643 h -4.08403 -4.08403 l -0.80167,1.12684 c -1.29197,1.81601 -4.26617,4.67882 -6.16617,5.93521 -2.5055,1.6568 -5.56693,2.95275 -7.61804,3.22484 -0.44102,0.0585 -0.80186,0.15746 -0.80186,0.2199 0,0.13964 2.03285,-0.0684 3.31359,-0.33915 z m -7.9879,-6.32803 v -3.83961 h -6.609647 -6.60966 l 0.68549,0.81873 c 2.09727,2.50497 5.12383,4.65329 8.19121,5.81431 0.84696,0.32058 3.3612,0.93588 4.217407,1.0321 0.0689,0.008 0.1252,-1.71375 0.1252,-3.82553 z m 5.87446,3.26606 c 2.92161,-0.69001 6.0727,-2.57207 8.69101,-5.19089 0.89522,-0.89539 1.62766,-1.69252 1.62766,-1.77138 0,-0.0789 -2.96735,-0.1434 -6.59411,-0.1434 h -6.59411 v 3.72831 c 0,2.05058 0.0387,3.76701 0.086,3.81429 0.10383,0.10382 1.26701,-0.0788 2.78358,-0.43693 z M 82.151283,157.59081 c 0,-0.033 -0.25506,-0.61518 -0.5668,-1.29378 -0.79489,-1.73034 -1.39792,-3.70204 -1.93461,-6.32548 l -0.46104,-2.25368 -6.79042,-0.0436 -6.79041,-0.0436 0.4517,0.79484 c 1.05756,1.86097 3.63694,5.60618 5.06013,7.34722 l 1.53521,1.87807 h 4.74812 c 2.61147,0 4.74812,-0.027 4.74812,-0.06 z m 18.697217,-4.94823 v -5.00818 h -9.277147 -9.27715 l 0.11866,0.9599 c 0.26539,2.14689 1.84412,6.76832 2.90844,8.51392 l 0.3308,0.54255 h 7.5982 7.598197 z m 19.19867,3.29706 c 1.09994,-2.30989 2.08784,-5.4773 2.39511,-7.67922 l 0.0874,-0.62602 h -9.33811 -9.33812 v 4.89689 c 0,2.69329 0.0501,4.94698 0.1113,5.00819 0.0612,0.0612 3.52147,0.11129 7.68946,0.11129 h 7.57817 z m 12.5414,1.08511 c 1.94773,-2.06616 5.52533,-7.19703 6.46029,-9.26515 0.0311,-0.0689 -2.97887,-0.1252 -6.6889,-0.1252 h -6.74551 l -0.45849,2.2711 c -0.46637,2.31015 -1.25434,4.81192 -2.10992,6.69885 l -0.47447,1.04642 h 4.71343 4.71342 z m -29.67799,-13.85598 c 1.08204,-3.33237 1.49954,-6.13727 1.26794,-8.51853 -0.22444,-2.30766 -0.97951,-3.99062 -2.65494,-5.91754 -1.10924,-1.27573 -3.096057,-3.04407 -4.056787,-3.61068 -1.38589,-0.81736 -4.06577,-2.88811 -5.27551,-4.0764 -1.36119,-1.33706 -2.35963,-2.65733 -3.24807,-4.29502 -0.6044,-1.11413 -1.61599,-4.1654 -1.95685,-5.90247 -0.10552,-0.53776 -0.2521,-0.91337 -0.32574,-0.83469 -0.33938,0.36262 -1.73481,4.87451 -2.18379,7.06093 -1.7989,8.76019 0.0977,15.43637 6.10079,21.47502 2.00544,2.01731 3.55626,3.40907 3.79871,3.40907 0.0707,0 0.12847,0.067 0.12847,0.14886 0,0.0861 -5.50525,0.1389 -13.06301,0.12521 l -13.06301,-0.0237 -0.0494,-19.44845 c -0.0544,-21.42546 -0.0529,-21.46308 0.97962,-25.14027 2.21573,-7.89092 8.25158,-15.53532 16.69913,-21.149454 3.62741,-2.410733 4.62595,-2.697627 6.11287,-1.756312 1.08129,0.684529 9.395217,6.960976 9.395217,7.092756 0,0.0528 -0.46952,0.59434 -1.04337,1.20346 -4.052287,4.30128 -6.467177,8.57607 -7.743417,13.70726 -0.48408,1.94628 -0.43864,6.20311 0.09,8.43044 0.49485,2.08497 0.999,3.43386 1.89058,5.05836 1.09271,1.99096 2.14764,3.27049 5.555047,6.73774 3.93897,4.00815 5.11687,5.51805 6.23402,7.99114 0.9096,2.01362 1.54711,4.47716 1.77835,6.87216 0.12551,1.2999 -0.13072,3.78615 -0.59881,5.81033 -0.2802,1.21169 -1.62372,5.79976 -1.93871,6.6206 -0.0917,0.2391 0.0733,0.25494 1.55122,0.14897 9.03385,-0.64777 17.8876,-6.8016 20.24442,-14.07097 0.79083,-2.43923 0.87935,-7.05259 0.18982,-9.89336 -0.76741,-3.1617 -2.31199,-5.43846 -6.17844,-9.1072 -2.57065,-2.4392 -3.62177,-3.72582 -4.34256,-5.31549 -1.48983,-3.28576 -1.59961,-7.81557 -0.27552,-11.36946 0.59691,-1.60213 1.22266,-2.53006 2.85337,-4.23126 l 1.01551,-1.0594 -0.73712,0.11884 c -0.40541,0.0654 -1.26663,0.29894 -1.91382,0.51907 -5.57199,1.89515 -9.17872,7.60537 -10.53075,16.67239 -0.48507,3.25299 -0.4452,3.20683 -1.58642,1.83633 -0.88334,-1.06081 -2.05118,-3.45145 -2.52809,-5.17512 -0.51482,-1.86068 -0.6466,-6.99139 -0.23624,-9.19747 1.08781,-5.84803 3.64856,-10.80468 7.879,-15.25078 1.31522,-1.38228 3.97407,-3.735473 5.04869,-4.468315 0.0383,-0.02609 0.0246,-0.0924 -0.0303,-0.147351 -0.17252,-0.172515 -3.80725,0.922334 -5.46474,1.646083 -2.31537,1.011011 -4.93947,2.556353 -6.59762,3.885343 l -0.67127,0.53802 -1.26806,-0.93975 c -0.69743,-0.51687 -3.487407,-2.615734 -6.199967,-4.664144 l -4.93193,-3.724379 -1.05837,0.533478 c -4.46673,2.251474 -10.2198,6.500145 -13.56888,10.020685 -5.81011,6.10757 -9.1038,12.51521 -10.20276,19.84877 -0.12591,0.84024 -0.28325,42.53369 -0.16175,42.86172 0.0612,0.16519 3.8674,0.20867 18.26523,0.20867 h 18.187927 z"
       id="path899"
       inkscape:connector-curvature="0" />
  </g>
</svg>
